<svg width="311" height="87" viewBox="0 0 311 87" fill="none" xmlns="http://www.w3.org/2000/svg">
<g filter="url(#filter0_d)">
<path d="M140.449 1.5771C141.127 2.06763 141.711 2.96213 142.202 4.2606C142.707 5.54463 142.988 6.65554 143.046 7.59333C143.118 8.53111 143.161 9.08656 143.176 9.25969C143.204 9.64923 142.901 9.93778 142.267 10.1253L141.033 10.4932C140.745 10.5654 140.442 10.486 140.124 10.2552C139.807 10.0099 139.641 9.6853 139.626 9.28133C139.396 7.01623 138.891 5.40757 138.112 4.45537C137.722 4.31109 137.289 4.23895 136.813 4.23895C135.37 4.16682 133.92 5.19116 132.463 7.31199C131.006 9.4184 129.758 12.2967 128.719 15.9468C127.363 20.578 127.075 24.3724 127.854 27.33C128.286 28.9748 128.943 29.9053 129.823 30.1217C131.987 29.9342 133.776 28.3399 135.19 25.339C135.233 25.2525 135.291 25.1298 135.363 24.9711C135.45 24.798 135.507 24.6898 135.536 24.6465C135.565 24.5888 135.608 24.5023 135.666 24.3868C135.738 24.257 135.789 24.1849 135.818 24.1704C135.846 24.1416 135.89 24.0911 135.947 24.0189C136.005 23.9468 136.056 23.9107 136.099 23.9107C136.157 23.9107 136.214 23.9035 136.272 23.8891C136.344 23.8602 136.416 23.8602 136.488 23.8891C136.575 23.9179 136.669 23.9468 136.77 23.9757C136.871 23.9901 136.979 24.0261 137.094 24.0839L138.501 24.6682C138.775 24.7692 138.912 25 138.912 25.3607C138.927 25.7069 138.833 26.0676 138.631 26.4427C137.246 28.9531 135.897 30.7349 134.584 31.7881C133.271 32.8269 131.641 33.3463 129.693 33.3463C128.799 33.3463 127.854 33.0361 126.858 32.4157C125.257 31.4346 124.297 29.321 123.98 26.0748C123.677 22.8142 124.045 19.1425 125.084 15.0595C125.747 12.3616 126.714 9.91614 127.983 7.72317C129.253 5.51578 130.725 3.77006 132.398 2.48602C134.086 1.20198 135.796 0.559962 137.527 0.559962C137.888 0.559962 138.371 0.660954 138.977 0.862939C139.598 1.06492 140.088 1.30298 140.449 1.5771ZM149.071 15.9252L151.841 15.7953C153.846 15.7087 155.383 14.8431 156.45 13.1984C157.475 11.6258 157.987 9.48332 157.987 6.77097C157.987 6.00631 157.727 5.36429 157.208 4.8449C156.703 4.32552 155.996 4.05861 155.087 4.04418C154.178 4.02976 153.19 4.01533 152.122 4.0009L149.071 15.9252ZM148.508 3.97926C148.046 3.97926 147.599 3.97926 147.166 3.97926C146.733 3.97926 146.43 3.85663 146.257 3.61136C146.084 3.35167 146.041 3.05591 146.128 2.72407L146.344 1.79351C146.402 1.53381 146.539 1.32462 146.755 1.16592C146.972 0.992785 147.174 0.90622 147.361 0.90622H154.892C156.926 0.90622 158.557 1.41839 159.783 2.44274C161.009 3.45266 161.623 4.95311 161.623 6.94409C161.623 8.93508 161.24 10.8034 160.476 12.5491C159.725 14.2949 158.896 15.5428 157.987 16.2931C157.092 17.0289 156.407 17.5194 155.931 17.7647C155.455 17.9955 154.935 18.2047 154.373 18.3922L156.407 31.4851C156.566 32.495 156.241 33 155.433 33H153.918C153.529 33 153.247 32.8846 153.074 32.6537C152.916 32.4229 152.8 32.0189 152.728 31.4418L151.062 18.9333L148.292 18.9766L144.959 32.0261C144.786 32.6754 144.346 33 143.639 33H142.362C142.001 33 141.742 32.8702 141.583 32.6105C141.424 32.3363 141.388 32.0117 141.475 31.6366L148.508 3.97926ZM168.884 1.88007C169.058 1.24527 169.483 0.920648 170.161 0.90622H171.59C172.21 0.90622 172.563 1.24527 172.65 1.92335C173.458 10.4932 173.71 16.7403 173.407 20.6646L184.747 1.75023C185.065 1.18756 185.505 0.90622 186.067 0.90622H187.539C187.856 0.935077 188.087 1.07935 188.232 1.33904C188.39 1.59874 188.426 1.91614 188.34 2.29125L180.765 32.0261C180.592 32.6754 180.145 33 179.424 33H178.147C177.786 33 177.526 32.8702 177.368 32.6105C177.209 32.3363 177.173 32.0117 177.259 31.6366L182.367 11.5969C181.342 13.4004 179.907 15.7592 178.06 18.6736C176.214 21.5735 175.045 23.4202 174.554 24.2137C173.804 25.4112 173.061 25.9883 172.325 25.945L171.438 25.9017C170.63 25.8584 170.262 25.2669 170.334 24.1271C170.536 20.9964 170.45 16.7187 170.075 11.294L164.794 32.0261C164.621 32.6754 164.181 33 163.474 33H162.176C161.815 33 161.555 32.8702 161.397 32.6105C161.238 32.3363 161.202 32.0117 161.288 31.6366L168.884 1.88007ZM3.13578 74C2.30378 74 1.71178 73.832 1.35978 73.496C1.02378 73.144 0.855781 72.552 0.855781 71.72V59.48C0.855781 58.648 1.02378 58.064 1.35978 57.728C1.71178 57.376 2.30378 57.2 3.13578 57.2H6.23178C6.69578 57.2 7.02378 57.32 7.21578 57.56C7.42378 57.784 7.57578 58.128 7.67178 58.592H3.90378C3.40778 58.592 3.09578 58.696 2.96778 58.904C2.83978 59.112 2.77578 59.464 2.77578 59.96V71.24C2.77578 71.736 2.83978 72.088 2.96778 72.296C3.09578 72.504 3.40778 72.608 3.90378 72.608H7.67178V73.352C7.67178 73.608 7.63178 73.784 7.55178 73.88C7.48778 73.96 7.32778 74 7.07178 74H3.13578ZM16.0633 74V62.456C16.0633 62.2 16.1033 62.032 16.1833 61.952C16.2793 61.856 16.4553 61.808 16.7113 61.808H17.9833V73.352C17.9833 73.608 17.9353 73.784 17.8393 73.88C17.7593 73.96 17.5913 74 17.3353 74H16.0633ZM10.0633 62.456C10.0633 62.2 10.1033 62.032 10.1833 61.952C10.2793 61.856 10.4553 61.808 10.7113 61.808H11.9833V71.24C11.9833 71.736 12.0473 72.088 12.1753 72.296C12.3033 72.504 12.6153 72.608 13.1113 72.608H15.1033V73.352C15.1033 73.608 15.0633 73.784 14.9833 73.88C14.9193 73.96 14.7593 74 14.5033 74H12.3433C11.5113 74 10.9193 73.832 10.5673 73.496C10.2313 73.144 10.0633 72.552 10.0633 71.72V62.456ZM22.951 68.6C22.535 68.6 22.191 68.568 21.919 68.504C21.663 68.44 21.455 68.328 21.295 68.168C21.151 67.992 21.047 67.768 20.983 67.496C20.935 67.224 20.911 66.88 20.911 66.464V64.088C20.911 63.256 21.079 62.672 21.415 62.336C21.767 61.984 22.359 61.808 23.191 61.808H26.407C26.663 61.808 26.823 61.856 26.887 61.952C26.967 62.032 27.007 62.2 27.007 62.456V63.2H23.839C23.343 63.2 23.031 63.304 22.903 63.512C22.775 63.72 22.711 64.072 22.711 64.568V65.84C22.711 66.128 22.719 66.368 22.735 66.56C22.767 66.736 22.823 66.872 22.903 66.968C22.983 67.064 23.095 67.128 23.239 67.16C23.399 67.192 23.599 67.208 23.839 67.208H25.207C25.623 67.208 25.959 67.24 26.215 67.304C26.487 67.368 26.695 67.488 26.839 67.664C26.999 67.824 27.103 68.04 27.151 68.312C27.215 68.584 27.247 68.928 27.247 69.344V71.72C27.247 72.552 27.071 73.144 26.719 73.496C26.383 73.832 25.799 74 24.967 74H21.511C21.255 74 21.087 73.96 21.007 73.88C20.943 73.784 20.911 73.608 20.911 73.352V72.608H24.319C24.815 72.608 25.127 72.504 25.255 72.296C25.383 72.088 25.447 71.736 25.447 71.24V69.968C25.447 69.472 25.383 69.12 25.255 68.912C25.127 68.704 24.815 68.6 24.319 68.6H22.951ZM34.399 61.808C34.655 61.808 34.815 61.856 34.879 61.952C34.959 62.032 34.999 62.2 34.999 62.456V63.2H32.047V71.24C32.047 71.736 32.111 72.088 32.239 72.296C32.367 72.504 32.679 72.608 33.175 72.608H35.263C35.231 73.072 35.135 73.424 34.975 73.664C34.831 73.888 34.527 74 34.063 74H32.407C31.575 74 30.983 73.832 30.631 73.496C30.295 73.144 30.127 72.552 30.127 71.72V59.672C30.127 59.416 30.167 59.248 30.247 59.168C30.343 59.072 30.519 59.024 30.775 59.024H32.047V61.808H34.399ZM37.344 64.088C37.344 63.256 37.512 62.672 37.848 62.336C38.2 61.984 38.792 61.808 39.624 61.808H42.984C43.816 61.808 44.4 61.984 44.736 62.336C45.088 62.672 45.264 63.256 45.264 64.088V71.72C45.264 72.552 45.088 73.144 44.736 73.496C44.4 73.832 43.816 74 42.984 74H39.624C38.792 74 38.2 73.832 37.848 73.496C37.512 73.144 37.344 72.552 37.344 71.72V64.088ZM40.392 63.2C39.896 63.2 39.584 63.304 39.456 63.512C39.328 63.72 39.264 64.072 39.264 64.568V71.24C39.264 71.736 39.328 72.088 39.456 72.296C39.584 72.504 39.896 72.608 40.392 72.608H42.216C42.712 72.608 43.024 72.504 43.152 72.296C43.28 72.088 43.344 71.736 43.344 71.24V64.568C43.344 64.072 43.28 63.72 43.152 63.512C43.024 63.304 42.712 63.2 42.216 63.2H40.392ZM56.1133 73.352C56.1133 73.608 56.0653 73.784 55.9693 73.88C55.8893 73.96 55.7213 74 55.4653 74H54.1933V64.568C54.1933 64.072 54.1293 63.72 54.0013 63.512C53.8733 63.304 53.5613 63.2 53.0653 63.2H50.2573V73.352C50.2573 73.608 50.2093 73.784 50.1133 73.88C50.0333 73.96 49.8653 74 49.6093 74H48.3373V62.456C48.3373 62.2 48.3773 62.032 48.4573 61.952C48.5533 61.856 48.7293 61.808 48.9853 61.808H50.2573V63.2C50.3533 62.736 50.4973 62.392 50.6893 62.168C50.8973 61.928 51.2333 61.808 51.6973 61.808H53.8333C54.6653 61.808 55.2493 61.984 55.5853 62.336C55.9373 62.672 56.1133 63.256 56.1133 64.088V73.352ZM61.9693 73.352C61.9693 73.608 61.9213 73.784 61.8253 73.88C61.7453 73.96 61.5773 74 61.3213 74H60.0493V64.568C60.0493 64.072 59.9853 63.72 59.8573 63.512C59.7293 63.304 59.4173 63.2 58.9213 63.2H56.0413C56.1373 62.736 56.2813 62.392 56.4733 62.168C56.6813 61.928 57.0173 61.808 57.4813 61.808H59.6893C60.5213 61.808 61.1053 61.984 61.4413 62.336C61.7933 62.672 61.9693 63.256 61.9693 64.088V73.352ZM71.5277 72.608V73.352C71.5277 73.608 71.4877 73.784 71.4077 73.88C71.3437 73.96 71.1837 74 70.9277 74H67.3037C66.4717 74 65.8797 73.832 65.5277 73.496C65.1917 73.144 65.0237 72.552 65.0237 71.72V64.088C65.0237 63.256 65.1917 62.672 65.5277 62.336C65.8797 61.984 66.4717 61.808 67.3037 61.808H69.9437C70.7757 61.808 71.3597 61.984 71.6957 62.336C72.0477 62.672 72.2237 63.256 72.2237 64.088V66.776C72.2237 67.608 72.0477 68.2 71.6957 68.552C71.3597 68.888 70.7757 69.056 69.9437 69.056H68.5037C68.2477 69.056 68.0797 69.016 67.9997 68.936C67.9357 68.84 67.9037 68.664 67.9037 68.408V67.664H69.2957C69.7917 67.664 70.1037 67.56 70.2317 67.352C70.3597 67.144 70.4237 66.792 70.4237 66.296V64.448C70.4237 63.952 70.3437 63.624 70.1837 63.464C70.0237 63.288 69.6957 63.2 69.1997 63.2H68.1677C67.6397 63.2 67.3037 63.296 67.1597 63.488C67.0157 63.664 66.9437 64.024 66.9437 64.568V71.24C66.9437 71.736 67.0077 72.088 67.1357 72.296C67.2637 72.504 67.5757 72.608 68.0717 72.608H71.5277ZM76.9058 63.2V73.352C76.9058 73.608 76.8578 73.784 76.7618 73.88C76.6818 73.96 76.5138 74 76.2578 74H74.9858V62.456C74.9858 62.2 75.0258 62.032 75.1058 61.952C75.2018 61.856 75.3778 61.808 75.6338 61.808H76.9058V63.2C77.1138 62.656 77.3298 62.288 77.5538 62.096C77.7778 61.904 78.1218 61.808 78.5858 61.808H79.5218C79.7778 61.808 79.9378 61.856 80.0018 61.952C80.0818 62.032 80.1218 62.2 80.1218 62.456V63.2H76.9058ZM92.119 64.592C92.615 64.592 92.927 64.488 93.055 64.28C93.183 64.072 93.247 63.72 93.247 63.224V59.96C93.247 59.464 93.183 59.112 93.055 58.904C92.927 58.696 92.615 58.592 92.119 58.592H89.191V73.352C89.191 73.608 89.143 73.784 89.047 73.88C88.967 73.96 88.799 74 88.543 74H87.271V57.848C87.271 57.592 87.311 57.424 87.391 57.344C87.487 57.248 87.663 57.2 87.919 57.2H92.887C93.719 57.2 94.303 57.376 94.639 57.728C94.991 58.064 95.167 58.648 95.167 59.48V63.704C95.167 64.456 95.031 65.008 94.759 65.36C94.487 65.696 94.023 65.896 93.367 65.96L95.791 74H94.567C94.311 74 94.119 73.96 93.991 73.88C93.879 73.784 93.783 73.608 93.703 73.352L91.471 65.984H90.751C90.495 65.984 90.327 65.944 90.247 65.864C90.183 65.768 90.151 65.592 90.151 65.336V64.592H92.119ZM104.645 72.608V73.352C104.645 73.608 104.605 73.784 104.525 73.88C104.461 73.96 104.301 74 104.045 74H100.421C99.5889 74 98.9969 73.832 98.6449 73.496C98.3089 73.144 98.1409 72.552 98.1409 71.72V64.088C98.1409 63.256 98.3089 62.672 98.6449 62.336C98.9969 61.984 99.5889 61.808 100.421 61.808H103.061C103.893 61.808 104.477 61.984 104.813 62.336C105.165 62.672 105.341 63.256 105.341 64.088V66.776C105.341 67.608 105.165 68.2 104.813 68.552C104.477 68.888 103.893 69.056 103.061 69.056H101.621C101.365 69.056 101.197 69.016 101.117 68.936C101.053 68.84 101.021 68.664 101.021 68.408V67.664H102.413C102.909 67.664 103.221 67.56 103.349 67.352C103.477 67.144 103.541 66.792 103.541 66.296V64.448C103.541 63.952 103.461 63.624 103.301 63.464C103.141 63.288 102.813 63.2 102.317 63.2H101.285C100.757 63.2 100.421 63.296 100.277 63.488C100.133 63.664 100.061 64.024 100.061 64.568V71.24C100.061 71.736 100.125 72.088 100.253 72.296C100.381 72.504 100.693 72.608 101.189 72.608H104.645ZM110.167 57.2V73.352C110.167 73.608 110.119 73.784 110.023 73.88C109.943 73.96 109.775 74 109.519 74H108.247V57.848C108.247 57.592 108.287 57.424 108.367 57.344C108.463 57.248 108.639 57.2 108.895 57.2H110.167ZM118.824 64.568C118.824 64.072 118.76 63.72 118.632 63.512C118.504 63.304 118.192 63.2 117.696 63.2H113.544C113.64 62.736 113.784 62.392 113.976 62.168C114.184 61.928 114.52 61.808 114.984 61.808H118.464C119.296 61.808 119.88 61.984 120.216 62.336C120.568 62.672 120.744 63.256 120.744 64.088V74H119.472C119.216 74 119.04 73.96 118.944 73.88C118.864 73.784 118.824 73.608 118.824 73.352V64.568ZM115.344 74C114.512 74 113.92 73.832 113.568 73.496C113.232 73.144 113.064 72.552 113.064 71.72V69.08C113.064 68.248 113.232 67.664 113.568 67.328C113.92 66.976 114.512 66.8 115.344 66.8H117.384C117.848 66.8 118.176 66.92 118.368 67.16C118.576 67.384 118.728 67.728 118.824 68.192H116.112C115.616 68.192 115.304 68.296 115.176 68.504C115.048 68.712 114.984 69.064 114.984 69.56V71.432C114.984 71.928 115.072 72.248 115.248 72.392C115.44 72.536 115.784 72.608 116.28 72.608H117.864V73.352C117.864 73.608 117.824 73.784 117.744 73.88C117.68 73.96 117.52 74 117.264 74H115.344ZM128.149 61.808C128.405 61.808 128.565 61.856 128.629 61.952C128.709 62.032 128.749 62.2 128.749 62.456V63.2H125.797V71.24C125.797 71.736 125.861 72.088 125.989 72.296C126.117 72.504 126.429 72.608 126.925 72.608H129.013C128.981 73.072 128.885 73.424 128.725 73.664C128.581 73.888 128.277 74 127.813 74H126.157C125.325 74 124.733 73.832 124.381 73.496C124.045 73.144 123.877 72.552 123.877 71.72V59.672C123.877 59.416 123.917 59.248 123.997 59.168C124.093 59.072 124.269 59.024 124.525 59.024H125.797V61.808H128.149ZM131.046 59.24C131.046 58.984 131.086 58.816 131.166 58.736C131.262 58.64 131.438 58.592 131.694 58.592H133.158V59.864C133.158 60.12 133.11 60.296 133.014 60.392C132.934 60.472 132.766 60.512 132.51 60.512H131.046V59.24ZM133.062 61.808V73.352C133.062 73.608 133.014 73.784 132.918 73.88C132.838 73.96 132.67 74 132.414 74H131.142V62.456C131.142 62.2 131.182 62.032 131.262 61.952C131.358 61.856 131.534 61.808 131.79 61.808H133.062ZM136.133 64.088C136.133 63.256 136.301 62.672 136.637 62.336C136.989 61.984 137.581 61.808 138.413 61.808H141.773C142.605 61.808 143.189 61.984 143.525 62.336C143.877 62.672 144.053 63.256 144.053 64.088V71.72C144.053 72.552 143.877 73.144 143.525 73.496C143.189 73.832 142.605 74 141.773 74H138.413C137.581 74 136.989 73.832 136.637 73.496C136.301 73.144 136.133 72.552 136.133 71.72V64.088ZM139.181 63.2C138.685 63.2 138.373 63.304 138.245 63.512C138.117 63.72 138.053 64.072 138.053 64.568V71.24C138.053 71.736 138.117 72.088 138.245 72.296C138.373 72.504 138.685 72.608 139.181 72.608H141.005C141.501 72.608 141.813 72.504 141.941 72.296C142.069 72.088 142.133 71.736 142.133 71.24V64.568C142.133 64.072 142.069 63.72 141.941 63.512C141.813 63.304 141.501 63.2 141.005 63.2H139.181ZM152.766 61.808C153.598 61.808 154.182 61.984 154.518 62.336C154.87 62.672 155.046 63.256 155.046 64.088V73.352C155.046 73.608 154.998 73.784 154.902 73.88C154.822 73.96 154.654 74 154.398 74H153.126V64.568C153.126 64.072 153.062 63.72 152.934 63.512C152.806 63.304 152.494 63.2 151.998 63.2H149.046V73.352C149.046 73.608 148.998 73.784 148.902 73.88C148.822 73.96 148.654 74 148.398 74H147.126V62.456C147.126 62.2 147.166 62.032 147.246 61.952C147.342 61.856 147.518 61.808 147.774 61.808H149.046V63.2C149.142 62.736 149.286 62.392 149.478 62.168C149.686 61.928 150.022 61.808 150.486 61.808H152.766ZM159.99 68.6C159.574 68.6 159.23 68.568 158.958 68.504C158.702 68.44 158.494 68.328 158.334 68.168C158.19 67.992 158.086 67.768 158.022 67.496C157.974 67.224 157.95 66.88 157.95 66.464V64.088C157.95 63.256 158.118 62.672 158.454 62.336C158.806 61.984 159.398 61.808 160.23 61.808H163.446C163.702 61.808 163.862 61.856 163.926 61.952C164.006 62.032 164.046 62.2 164.046 62.456V63.2H160.878C160.382 63.2 160.07 63.304 159.942 63.512C159.814 63.72 159.75 64.072 159.75 64.568V65.84C159.75 66.128 159.758 66.368 159.774 66.56C159.806 66.736 159.862 66.872 159.942 66.968C160.022 67.064 160.134 67.128 160.278 67.16C160.438 67.192 160.638 67.208 160.878 67.208H162.246C162.662 67.208 162.998 67.24 163.254 67.304C163.526 67.368 163.734 67.488 163.878 67.664C164.038 67.824 164.142 68.04 164.19 68.312C164.254 68.584 164.286 68.928 164.286 69.344V71.72C164.286 72.552 164.11 73.144 163.758 73.496C163.422 73.832 162.838 74 162.006 74H158.55C158.294 74 158.126 73.96 158.046 73.88C157.982 73.784 157.95 73.608 157.95 73.352V72.608H161.358C161.854 72.608 162.166 72.504 162.294 72.296C162.422 72.088 162.486 71.736 162.486 71.24V69.968C162.486 69.472 162.422 69.12 162.294 68.912C162.166 68.704 161.854 68.6 161.358 68.6H159.99ZM175.086 73.352C175.086 73.608 175.038 73.784 174.942 73.88C174.862 73.96 174.694 74 174.438 74H173.166V64.568C173.166 64.072 173.102 63.72 172.974 63.512C172.846 63.304 172.534 63.2 172.038 63.2H169.086V73.352C169.086 73.608 169.038 73.784 168.942 73.88C168.862 73.96 168.694 74 168.438 74H167.166V57.848C167.166 57.592 167.206 57.424 167.286 57.344C167.382 57.248 167.558 57.2 167.814 57.2H169.086V63.2C169.182 62.736 169.326 62.392 169.518 62.168C169.726 61.928 170.062 61.808 170.526 61.808H172.806C173.638 61.808 174.222 61.984 174.558 62.336C174.91 62.672 175.086 63.256 175.086 64.088V73.352ZM178.085 59.24C178.085 58.984 178.125 58.816 178.205 58.736C178.301 58.64 178.477 58.592 178.733 58.592H180.197V59.864C180.197 60.12 180.149 60.296 180.053 60.392C179.973 60.472 179.805 60.512 179.549 60.512H178.085V59.24ZM180.101 61.808V73.352C180.101 73.608 180.053 73.784 179.957 73.88C179.877 73.96 179.709 74 179.453 74H178.181V62.456C178.181 62.2 178.221 62.032 178.301 61.952C178.397 61.856 178.573 61.808 178.829 61.808H180.101ZM188.86 61.808C189.692 61.808 190.276 61.984 190.612 62.336C190.964 62.672 191.14 63.256 191.14 64.088V71.72C191.14 72.552 190.964 73.144 190.612 73.496C190.276 73.832 189.692 74 188.86 74H186.58C186.116 74 185.78 73.888 185.572 73.664C185.38 73.424 185.236 73.072 185.14 72.608V78.176C185.14 78.432 185.092 78.6 184.996 78.68C184.916 78.776 184.748 78.824 184.492 78.824H183.22V62.456C183.22 62.2 183.26 62.032 183.34 61.952C183.436 61.856 183.612 61.808 183.868 61.808H185.14V72.608H188.092C188.588 72.608 188.9 72.504 189.028 72.296C189.156 72.088 189.22 71.736 189.22 71.24V64.568C189.22 64.072 189.156 63.72 189.028 63.512C188.9 63.304 188.588 63.2 188.092 63.2H186.1V62.456C186.1 62.2 186.132 62.032 186.196 61.952C186.276 61.856 186.444 61.808 186.7 61.808H188.86ZM205.764 68.168C205.652 68.408 205.54 68.576 205.428 68.672C205.332 68.768 205.18 68.816 204.972 68.816H204.204L200.868 60.032H200.724L200.916 62.936L201.036 73.352C201.036 73.608 200.988 73.784 200.892 73.88C200.812 73.96 200.644 74 200.388 74H199.068V57.848C199.068 57.592 199.108 57.424 199.188 57.344C199.284 57.248 199.46 57.2 199.716 57.2H201.324L204.396 65.024L204.924 67.016H205.068L205.62 65.024L208.644 57.848C208.74 57.624 208.852 57.464 208.98 57.368C209.108 57.256 209.292 57.2 209.532 57.2H210.972V73.352C210.972 73.608 210.924 73.784 210.828 73.88C210.748 73.96 210.58 74 210.324 74H209.052V62.936L209.268 60.032H209.124L205.764 68.168ZM219.675 64.568C219.675 64.072 219.611 63.72 219.483 63.512C219.355 63.304 219.043 63.2 218.547 63.2H214.395C214.491 62.736 214.635 62.392 214.827 62.168C215.035 61.928 215.371 61.808 215.835 61.808H219.315C220.147 61.808 220.731 61.984 221.067 62.336C221.419 62.672 221.595 63.256 221.595 64.088V74H220.323C220.067 74 219.891 73.96 219.795 73.88C219.715 73.784 219.675 73.608 219.675 73.352V64.568ZM216.195 74C215.363 74 214.771 73.832 214.419 73.496C214.083 73.144 213.915 72.552 213.915 71.72V69.08C213.915 68.248 214.083 67.664 214.419 67.328C214.771 66.976 215.363 66.8 216.195 66.8H218.235C218.699 66.8 219.027 66.92 219.219 67.16C219.427 67.384 219.579 67.728 219.675 68.192H216.963C216.467 68.192 216.155 68.296 216.027 68.504C215.899 68.712 215.835 69.064 215.835 69.56V71.432C215.835 71.928 215.923 72.248 216.099 72.392C216.291 72.536 216.635 72.608 217.131 72.608H218.715V73.352C218.715 73.608 218.675 73.784 218.595 73.88C218.531 73.96 218.371 74 218.115 74H216.195ZM230.345 61.808C231.177 61.808 231.761 61.984 232.097 62.336C232.449 62.672 232.625 63.256 232.625 64.088V73.352C232.625 73.608 232.577 73.784 232.481 73.88C232.401 73.96 232.233 74 231.977 74H230.705V64.568C230.705 64.072 230.641 63.72 230.513 63.512C230.385 63.304 230.073 63.2 229.577 63.2H226.625V73.352C226.625 73.608 226.577 73.784 226.481 73.88C226.401 73.96 226.233 74 225.977 74H224.705V62.456C224.705 62.2 224.745 62.032 224.825 61.952C224.921 61.856 225.097 61.808 225.353 61.808H226.625V63.2C226.721 62.736 226.865 62.392 227.057 62.168C227.265 61.928 227.601 61.808 228.065 61.808H230.345ZM241.144 64.568C241.144 64.072 241.08 63.72 240.952 63.512C240.824 63.304 240.512 63.2 240.016 63.2H235.864C235.96 62.736 236.104 62.392 236.296 62.168C236.504 61.928 236.84 61.808 237.304 61.808H240.784C241.616 61.808 242.2 61.984 242.536 62.336C242.888 62.672 243.064 63.256 243.064 64.088V74H241.792C241.536 74 241.36 73.96 241.264 73.88C241.184 73.784 241.144 73.608 241.144 73.352V64.568ZM237.664 74C236.832 74 236.24 73.832 235.888 73.496C235.552 73.144 235.384 72.552 235.384 71.72V69.08C235.384 68.248 235.552 67.664 235.888 67.328C236.24 66.976 236.832 66.8 237.664 66.8H239.704C240.168 66.8 240.496 66.92 240.688 67.16C240.896 67.384 241.048 67.728 241.144 68.192H238.432C237.936 68.192 237.624 68.296 237.496 68.504C237.368 68.712 237.304 69.064 237.304 69.56V71.432C237.304 71.928 237.392 72.248 237.568 72.392C237.76 72.536 238.104 72.608 238.6 72.608H240.184V73.352C240.184 73.608 240.144 73.784 240.064 73.88C240 73.96 239.84 74 239.584 74H237.664ZM248.405 74C247.573 74 246.981 73.832 246.629 73.496C246.293 73.144 246.125 72.552 246.125 71.72V64.088C246.125 63.256 246.293 62.672 246.629 62.336C246.981 61.984 247.573 61.808 248.405 61.808H250.685C251.149 61.808 251.477 61.928 251.669 62.168C251.877 62.392 252.029 62.736 252.125 63.2H249.173C248.677 63.2 248.365 63.304 248.237 63.512C248.109 63.72 248.045 64.072 248.045 64.568V71.24C248.045 71.736 248.109 72.088 248.237 72.296C248.365 72.504 248.677 72.608 249.173 72.608H251.165V73.352C251.165 73.608 251.125 73.784 251.045 73.88C250.981 73.96 250.821 74 250.565 74H248.405ZM246.725 78.824C246.469 78.824 246.301 78.776 246.221 78.68C246.157 78.6 246.125 78.432 246.125 78.176V77.432H250.997C251.237 77.432 251.429 77.416 251.573 77.384C251.733 77.352 251.853 77.288 251.933 77.192C252.013 77.096 252.061 76.96 252.077 76.784C252.109 76.608 252.125 76.368 252.125 76.064V62.456C252.125 62.2 252.165 62.032 252.245 61.952C252.341 61.856 252.517 61.808 252.773 61.808H254.045V76.544C254.045 77.376 253.869 77.96 253.517 78.296C253.181 78.648 252.597 78.824 251.765 78.824H246.725ZM263.973 72.608V73.352C263.973 73.608 263.933 73.784 263.853 73.88C263.789 73.96 263.629 74 263.373 74H259.749C258.917 74 258.325 73.832 257.973 73.496C257.637 73.144 257.469 72.552 257.469 71.72V64.088C257.469 63.256 257.637 62.672 257.973 62.336C258.325 61.984 258.917 61.808 259.749 61.808H262.389C263.221 61.808 263.805 61.984 264.141 62.336C264.493 62.672 264.669 63.256 264.669 64.088V66.776C264.669 67.608 264.493 68.2 264.141 68.552C263.805 68.888 263.221 69.056 262.389 69.056H260.949C260.693 69.056 260.525 69.016 260.445 68.936C260.381 68.84 260.349 68.664 260.349 68.408V67.664H261.741C262.237 67.664 262.549 67.56 262.677 67.352C262.805 67.144 262.869 66.792 262.869 66.296V64.448C262.869 63.952 262.789 63.624 262.629 63.464C262.469 63.288 262.141 63.2 261.645 63.2H260.613C260.085 63.2 259.749 63.296 259.605 63.488C259.461 63.664 259.389 64.024 259.389 64.568V71.24C259.389 71.736 259.453 72.088 259.581 72.296C259.709 72.504 260.021 72.608 260.517 72.608H263.973ZM275.207 73.352C275.207 73.608 275.159 73.784 275.063 73.88C274.983 73.96 274.815 74 274.559 74H273.287V64.568C273.287 64.072 273.223 63.72 273.095 63.512C272.967 63.304 272.655 63.2 272.159 63.2H269.351V73.352C269.351 73.608 269.303 73.784 269.207 73.88C269.127 73.96 268.959 74 268.703 74H267.431V62.456C267.431 62.2 267.471 62.032 267.551 61.952C267.647 61.856 267.823 61.808 268.079 61.808H269.351V63.2C269.447 62.736 269.591 62.392 269.783 62.168C269.991 61.928 270.327 61.808 270.791 61.808H272.927C273.759 61.808 274.343 61.984 274.679 62.336C275.031 62.672 275.207 63.256 275.207 64.088V73.352ZM281.063 73.352C281.063 73.608 281.015 73.784 280.919 73.88C280.839 73.96 280.671 74 280.415 74H279.143V64.568C279.143 64.072 279.079 63.72 278.951 63.512C278.823 63.304 278.511 63.2 278.015 63.2H275.135C275.231 62.736 275.375 62.392 275.567 62.168C275.775 61.928 276.111 61.808 276.575 61.808H278.783C279.615 61.808 280.199 61.984 280.535 62.336C280.887 62.672 281.063 63.256 281.063 64.088V73.352ZM290.621 72.608V73.352C290.621 73.608 290.581 73.784 290.501 73.88C290.437 73.96 290.277 74 290.021 74H286.397C285.565 74 284.973 73.832 284.621 73.496C284.285 73.144 284.117 72.552 284.117 71.72V64.088C284.117 63.256 284.285 62.672 284.621 62.336C284.973 61.984 285.565 61.808 286.397 61.808H289.037C289.869 61.808 290.453 61.984 290.789 62.336C291.141 62.672 291.317 63.256 291.317 64.088V66.776C291.317 67.608 291.141 68.2 290.789 68.552C290.453 68.888 289.869 69.056 289.037 69.056H287.597C287.341 69.056 287.173 69.016 287.093 68.936C287.029 68.84 286.997 68.664 286.997 68.408V67.664H288.389C288.885 67.664 289.197 67.56 289.325 67.352C289.453 67.144 289.517 66.792 289.517 66.296V64.448C289.517 63.952 289.437 63.624 289.277 63.464C289.117 63.288 288.789 63.2 288.293 63.2H287.261C286.733 63.2 286.397 63.296 286.253 63.488C286.109 63.664 286.037 64.024 286.037 64.568V71.24C286.037 71.736 286.101 72.088 286.229 72.296C286.357 72.504 286.669 72.608 287.165 72.608H290.621ZM299.72 61.808C300.552 61.808 301.136 61.984 301.472 62.336C301.824 62.672 302 63.256 302 64.088V73.352C302 73.608 301.952 73.784 301.856 73.88C301.776 73.96 301.608 74 301.352 74H300.08V64.568C300.08 64.072 300.016 63.72 299.888 63.512C299.76 63.304 299.448 63.2 298.952 63.2H296V73.352C296 73.608 295.952 73.784 295.856 73.88C295.776 73.96 295.608 74 295.352 74H294.08V62.456C294.08 62.2 294.12 62.032 294.2 61.952C294.296 61.856 294.472 61.808 294.728 61.808H296V63.2C296.096 62.736 296.24 62.392 296.432 62.168C296.64 61.928 296.976 61.808 297.44 61.808H299.72ZM309.391 61.808C309.647 61.808 309.807 61.856 309.871 61.952C309.951 62.032 309.991 62.2 309.991 62.456V63.2H307.039V71.24C307.039 71.736 307.103 72.088 307.231 72.296C307.359 72.504 307.671 72.608 308.167 72.608H310.255C310.223 73.072 310.127 73.424 309.967 73.664C309.823 73.888 309.519 74 309.055 74H307.399C306.567 74 305.975 73.832 305.623 73.496C305.287 73.144 305.119 72.552 305.119 71.72V59.672C305.119 59.416 305.159 59.248 305.239 59.168C305.335 59.072 305.511 59.024 305.767 59.024H307.039V61.808H309.391Z" fill="white"/>
</g>
<defs>
<filter id="filter0_d" x="-3.14423" y="0.559967" width="317.399" height="86.264" filterUnits="userSpaceOnUse" color-interpolation-filters="sRGB">
<feFlood flood-opacity="0" result="BackgroundImageFix"/>
<feColorMatrix in="SourceAlpha" type="matrix" values="0 0 0 0 0 0 0 0 0 0 0 0 0 0 0 0 0 0 127 0"/>
<feOffset dy="4"/>
<feGaussianBlur stdDeviation="2"/>
<feColorMatrix type="matrix" values="0 0 0 0 0 0 0 0 0 0 0 0 0 0 0 0 0 0 0.25 0"/>
<feBlend mode="normal" in2="BackgroundImageFix" result="effect1_dropShadow"/>
<feBlend mode="normal" in="SourceGraphic" in2="effect1_dropShadow" result="shape"/>
</filter>
</defs>
</svg>
